<?xml version="1.0" standalone="no"?>
<!DOCTYPE svg PUBLIC "-//W3C//DTD SVG 20010904//EN"
 "http://www.w3.org/TR/2001/REC-SVG-20010904/DTD/svg10.dtd">
<svg version="1.0" xmlns="http://www.w3.org/2000/svg"
 width="300.000000pt" height="300.000000pt" viewBox="0 0 300.000000 300.000000"
 preserveAspectRatio="xMidYMid meet">
<g transform="translate(0.000000,300.000000) scale(0.100000,-0.100000)"
fill="#ffffff" stroke="none">
<path d="M2515 2891 c-16 -10 -108 -97 -202 -193 -186 -188 -193 -200 -152
-252 14 -18 30 -26 52 -26 27 0 50 18 160 128 l129 127 -7 -105 c-33 -541
-187 -905 -479 -1136 -76 -61 -300 -183 -313 -171 -3 3 0 21 6 39 30 95 45
219 45 373 0 179 -17 267 -76 377 -68 128 -223 257 -361 300 -106 34 -244 32
-350 -5 -218 -76 -373 -249 -422 -471 -53 -238 67 -498 298 -649 157 -103 295
-145 504 -154 l132 -6 -40 -79 c-208 -414 -516 -668 -888 -733 -110 -20 -228
-19 -379 2 l-123 17 -21 -22 c-27 -27 -28 -77 -2 -103 51 -51 409 -73 582 -35
251 54 450 164 642 356 153 153 269 325 360 538 l36 84 100 32 c531 174 862
693 891 1399 l6 149 126 -126 c107 -107 131 -126 157 -126 49 0 81 49 63 98
-12 31 -331 356 -371 378 -36 19 -67 18 -103 -5z m269 -211 c156 -155 179
-182 170 -197 -23 -36 -43 -24 -163 91 -66 64 -126 116 -134 116 -7 0 -22 -9
-32 -20 -14 -15 -19 -47 -26 -152 -36 -559 -241 -987 -582 -1217 -98 -66 -143
-88 -277 -135 l-115 -41 -80 -160 c-91 -181 -113 -217 -200 -330 -192 -248
-454 -419 -730 -477 -200 -42 -575 -18 -575 37 0 23 29 37 62 31 98 -18 137
-21 283 -21 135 1 174 4 249 24 234 61 409 172 600 381 94 103 226 310 261
411 12 34 12 40 -5 62 -18 22 -28 24 -142 30 -156 8 -264 35 -397 99 -91 44
-116 62 -191 137 -99 98 -150 189 -175 306 -18 88 -18 132 0 218 56 266 298
462 570 460 251 -1 472 -182 542 -443 27 -102 24 -330 -6 -493 l-24 -128 21
-21 c19 -20 24 -21 64 -9 158 48 362 203 488 372 170 228 273 549 287 897 5
128 4 144 -12 162 -10 11 -25 20 -33 20 -8 0 -63 -46 -121 -103 -128 -124
-134 -129 -155 -121 -40 15 -15 50 157 222 156 155 177 172 207 172 31 0 52
-18 214 -180z"/>
<path d="M1029 2256 c-181 -50 -342 -221 -380 -403 -60 -291 182 -582 546
-658 101 -21 312 -23 343 -4 41 26 69 112 97 296 30 196 13 378 -45 498 -33
67 -111 154 -184 205 -105 71 -258 98 -377 66z m244 -46 c109 -34 228 -136
282 -241 72 -140 71 -445 -2 -684 l-19 -60 -126 -3 c-161 -3 -274 20 -404 83
-235 114 -363 339 -313 554 37 160 197 323 355 360 67 16 158 12 227 -9z"/>
</g>
</svg>
