<?xml version="1.0" standalone="no"?>
<!DOCTYPE svg PUBLIC "-//W3C//DTD SVG 20010904//EN"
 "http://www.w3.org/TR/2001/REC-SVG-20010904/DTD/svg10.dtd">
<svg version="1.0" xmlns="http://www.w3.org/2000/svg"
 width="900.000000pt" height="900.000000pt" viewBox="0 0 900.000000 900.000000"
 preserveAspectRatio="xMidYMid meet">
<g transform="translate(0.000000,900.000000) scale(0.100000,-0.100000)"
fill="#f5f5f5" stroke="none">
<path d="M7611 8704 c-25 -9 -61 -26 -80 -39 -20 -13 -271 -259 -557 -547
-547 -548 -564 -568 -564 -652 0 -75 47 -154 119 -198 47 -30 165 -30 211 -1
17 11 185 170 372 354 188 184 347 338 354 342 18 10 18 -65 4 -323 -21 -372
-67 -752 -116 -967 -8 -34 -14 -72 -14 -84 0 -12 -6 -45 -14 -73 -8 -28 -22
-82 -31 -121 -29 -120 -94 -348 -116 -403 -5 -13 -18 -52 -30 -85 -24 -75 -77
-207 -126 -317 -172 -380 -383 -705 -642 -985 -86 -92 -110 -115 -246 -234
-130 -113 -341 -271 -362 -271 -4 0 -14 -6 -22 -14 -30 -26 -285 -159 -406
-212 -105 -45 -188 -74 -215 -74 -30 0 -32 2 -25 28 4 15 11 43 15 62 4 19 13
58 20 85 40 163 42 177 84 445 34 218 49 440 44 665 -3 121 -11 256 -17 300
-34 228 -56 343 -82 420 -6 17 -14 44 -19 60 -20 71 -83 222 -122 288 -15 26
-28 50 -28 52 0 5 -91 138 -99 145 -3 3 -38 43 -78 90 -130 155 -284 293 -440
396 -291 192 -619 294 -942 294 -179 0 -456 -50 -588 -107 -17 -7 -35 -13 -39
-13 -4 0 -26 -9 -48 -19 -23 -11 -72 -34 -110 -51 -244 -112 -523 -343 -697
-575 -41 -56 -87 -123 -116 -170 -53 -87 -149 -299 -173 -380 -82 -275 -105
-499 -76 -716 25 -191 63 -337 121 -474 22 -53 116 -239 135 -270 11 -16 24
-39 30 -50 35 -70 181 -248 299 -365 231 -231 475 -390 801 -522 155 -63 402
-138 520 -158 25 -5 72 -13 105 -18 217 -38 286 -44 538 -46 l262 -2 -3 -24
c-2 -14 -10 -36 -17 -50 -7 -14 -49 -99 -94 -190 -46 -91 -98 -192 -116 -225
-19 -33 -39 -69 -45 -80 -6 -11 -19 -33 -30 -50 -11 -16 -24 -39 -30 -50 -47
-89 -282 -422 -356 -505 -12 -14 -55 -63 -95 -110 -207 -244 -557 -553 -777
-685 -9 -6 -42 -26 -72 -46 -137 -88 -346 -193 -520 -259 -213 -82 -338 -116
-585 -164 -381 -72 -896 -60 -1300 32 -101 22 -213 22 -251 -2 -84 -53 -114
-105 -114 -196 0 -75 19 -119 74 -167 46 -40 83 -53 261 -87 269 -51 489 -71
785 -71 454 0 853 73 1275 233 180 68 436 193 562 275 24 15 45 27 47 27 10 0
195 127 291 199 226 170 495 423 681 641 100 116 304 386 375 495 48 73 117
183 134 213 6 10 23 40 40 67 65 110 210 394 272 535 37 82 112 265 118 288 7
23 51 52 81 52 29 0 368 106 429 135 17 7 55 23 85 35 83 33 276 128 358 177
41 24 75 43 78 43 2 0 33 20 70 45 36 25 67 45 70 45 11 0 258 191 349 271
114 99 271 258 368 371 70 83 267 343 267 354 0 3 14 23 30 44 17 21 30 40 30
43 0 3 13 25 29 49 16 24 39 61 51 83 12 22 33 60 47 85 62 112 203 401 203
417 0 3 12 31 26 62 15 30 30 67 35 81 4 14 17 50 29 80 12 30 25 69 30 85 5
17 14 46 21 65 39 112 35 98 83 272 50 180 71 268 121 520 32 166 75 466 76
533 0 28 4 73 9 100 5 28 14 149 19 270 16 344 22 405 34 405 7 0 163 -151
347 -335 184 -185 350 -345 369 -357 48 -30 164 -30 212 0 40 24 77 61 94 94
6 13 17 22 23 20 8 -1 12 22 12 78 0 61 -3 80 -14 80 -7 0 -19 13 -25 28 -7
16 -256 271 -554 569 -511 509 -545 541 -600 561 -68 26 -134 27 -196 6z
m-3954 -2044 c54 -10 114 -25 133 -31 108 -37 277 -116 311 -145 8 -8 19 -14
23 -14 18 0 180 -133 267 -220 82 -81 182 -203 226 -275 21 -34 83 -165 83
-175 0 -5 6 -24 14 -42 36 -85 66 -218 91 -405 18 -132 20 -502 4 -638 -6 -49
-14 -126 -19 -170 -17 -159 -55 -358 -106 -560 -40 -155 -47 -183 -60 -218 -8
-20 -14 -46 -14 -57 0 -40 -37 -50 -226 -60 -609 -35 -1130 82 -1574 353 -165
101 -359 276 -477 432 -59 78 -183 284 -183 303 0 6 -6 23 -14 39 -33 65 -66
174 -91 296 -36 183 -8 472 61 635 8 18 14 37 14 43 0 23 93 196 152 282 58
86 77 110 175 212 196 206 489 364 778 418 119 22 313 21 432 -3z"/>
</g>
</svg>
