<svg width="602" height="752" viewBox="0 0 602 752" fill="none" xmlns="http://www.w3.org/2000/svg">
  <path fill-rule="evenodd" clip-rule="evenodd"
    d="M301 225.6C259.471 225.6 225.75 259.299 225.75 300.8C225.75 342.301 259.471 376 301 376C342.529 376 376.25 342.301 376.25 300.8C376.25 259.299 342.529 225.6 301 225.6ZM301 244.4C332.144 244.4 357.438 269.677 357.438 300.8C357.438 331.923 332.144 357.2 301 357.2C269.856 357.2 244.562 331.923 244.562 300.8C244.562 269.677 269.856 244.4 301 244.4Z"
    fill="black" />
  <path fill-rule="evenodd" clip-rule="evenodd"
    d="M381.122 405.215C358.924 422.257 331.138 432.4 301 432.4C228.318 432.4 169.312 373.434 169.312 300.8C169.312 228.166 228.318 169.2 301 169.2C373.682 169.2 432.688 228.166 432.688 300.8V329C432.688 336.482 429.715 343.654 424.419 348.937C419.133 354.229 411.956 357.2 404.469 357.2C404.459 357.2 404.459 357.2 404.45 357.2C396.972 357.2 389.795 354.23 384.509 348.947C379.222 343.664 376.25 336.492 376.25 329.019C376.25 293.101 376.25 244.4 376.25 244.4C376.25 239.211 372.036 235 366.844 235C361.652 235 357.438 239.211 357.438 244.4C357.438 244.4 357.438 293.101 357.438 329.019C357.438 341.483 362.395 353.43 371.208 362.238C380.022 371.046 391.977 376 404.45 376C404.459 376 404.459 376 404.469 376C416.941 376 428.906 371.046 437.729 362.238C446.543 353.421 451.5 341.464 451.5 329C451.5 318.763 451.5 308.414 451.5 300.8C451.5 217.788 384.067 150.4 301 150.4C217.933 150.4 150.5 217.788 150.5 300.8C150.5 383.811 217.933 451.2 301 451.2C335.446 451.2 367.211 439.61 392.589 420.123C396.709 416.956 397.48 411.052 394.319 406.935C391.15 402.827 385.242 402.047 381.122 405.215Z"
    fill="black" />
  <path fill-rule="evenodd" clip-rule="evenodd"
    d="M526.75 159.8C526.75 137.362 517.833 115.846 501.955 99.9786C486.077 84.1114 464.546 75.2002 442.094 75.2002H159.906C137.454 75.2002 115.923 84.1114 100.045 99.9786C84.1671 115.846 75.25 137.362 75.25 159.8V441.8C75.25 464.238 84.1671 485.755 100.045 501.622C115.923 517.489 137.454 526.4 159.906 526.4H442.094C464.546 526.4 486.077 517.489 501.955 501.622C517.833 485.755 526.75 464.238 526.75 441.8V159.8ZM507.938 159.8V441.8C507.938 459.256 501.005 475.988 488.655 488.33C476.304 500.672 459.561 507.6 442.094 507.6H159.906C142.439 507.6 125.696 500.672 113.345 488.33C100.995 475.988 94.0625 459.256 94.0625 441.8V159.8C94.0625 142.344 100.995 125.612 113.345 113.27C125.696 100.928 142.439 94.0002 159.906 94.0002H442.094C459.561 94.0002 476.304 100.928 488.655 113.27C501.005 125.612 507.938 142.344 507.938 159.8Z"
    fill="black" />
</svg>
  