<svg width="63" height="62" viewBox="0 0 63 62" fill="none" xmlns="http://www.w3.org/2000/svg">
  <path
    d="M31 3.04939e-05C22.7783 3.04939e-05 14.8933 3.26609 9.07969 9.07972C3.26606 14.8933 0 22.7783 0 31C0 39.2217 3.26606 47.1067 9.07969 52.9203C14.8933 58.734 22.7783 62 31 62C40.49 62 48.06 58.54 50.27 53.19C50.7979 51.946 50.9634 50.5781 50.7476 49.2441C50.5317 47.91 49.9433 46.6641 49.05 45.65C49.9952 44.6624 50.6672 43.4459 51 42.12C51.088 41.3456 50.9332 40.563 50.557 39.8805C50.1808 39.1979 49.6017 38.6491 48.9 38.31L48.75 38.2C48.18 37.81 45.54 36.09 43.85 34.99L42.49 34.11C41.6523 33.5823 40.6455 33.392 39.673 33.5776C38.7004 33.7632 37.8345 34.3109 37.25 35.11L37 35.4C36.49 36.06 36.23 36.4 35.88 36.4C35.24 36.4 33.65 35.73 30 32.08C26.35 28.43 25.64 26.88 25.68 26.2C25.68 25.86 25.99 25.6 26.68 25.08L27 24.82C27.8071 24.2416 28.361 23.3752 28.5471 22.3999C28.7332 21.4245 28.5374 20.415 28 19.58L26.88 17.87C25.78 16.18 24.27 13.87 23.88 13.32L23.78 13.17C23.4419 12.4432 22.8826 11.8419 22.1821 11.4522C21.4817 11.0624 20.6759 10.9041 19.88 11C17.88 11.29 13 14.41 13 20.1C13 25.29 16.77 32.04 23.35 38.62C29.93 45.2 36.67 49 41.86 49C43.9451 49.0053 45.9697 48.2999 47.6 47C48.2285 47.737 48.6391 48.6346 48.7857 49.592C48.9323 50.5494 48.8091 51.5287 48.43 52.42C46.86 56.2 40.87 60 31 60C24.9325 59.9892 19.0212 58.0755 14.0985 54.5284C9.17585 50.9813 5.48969 45.9796 3.55911 40.2274C1.62853 34.4752 1.55077 28.2624 3.33679 22.4637C5.1228 16.665 8.68262 11.5726 13.515 7.90343C18.3474 4.23427 24.2089 2.17323 30.2742 2.01051C36.3395 1.84779 42.3031 3.59158 47.3253 6.99636C52.3475 10.4011 56.1752 15.2954 58.2696 20.99C60.3639 26.6846 60.6194 32.8926 59 38.74L60.92 39.27C62.1953 34.663 62.3878 29.8235 61.4826 25.1297C60.5774 20.4359 58.5989 16.015 55.7019 12.2127C52.8048 8.41028 49.0677 5.32939 44.7825 3.2108C40.4973 1.09221 35.7803 -0.00667384 31 3.04939e-05ZM24.76 37.24C18.56 31 15 24.81 15 20.14C15.0157 18.5609 15.5215 17.0256 16.4477 15.7465C17.3739 14.4674 18.6746 13.5077 20.17 13H20.43C21.14 13 21.52 13.49 22.04 14.25L22.15 14.42C22.51 14.95 24.02 17.26 25.15 18.93L26.27 20.65C26.5273 21.071 26.6127 21.5749 26.5084 22.0571C26.4042 22.5394 26.1182 22.963 25.71 23.24L25.41 23.48C24.9452 23.7487 24.5478 24.1198 24.248 24.5651C23.9482 25.0105 23.754 25.5183 23.68 26.05C23.57 27.74 24.99 29.89 28.58 33.47C32.17 37.05 34.3 38.47 35.99 38.37C36.5213 38.2905 37.0282 38.0941 37.4744 37.7949C37.9206 37.4958 38.2948 37.1013 38.57 36.64L38.8 36.34C39.0773 35.9291 39.5027 35.6413 39.9873 35.5369C40.4719 35.4326 40.9782 35.5197 41.4 35.78L42.76 36.67C44.44 37.76 47.05 39.46 47.62 39.85L47.79 39.97C48.64 40.54 49.15 40.97 49.02 41.84C48.5095 43.3367 47.546 44.6376 46.2631 45.5621C44.9801 46.4867 43.4413 46.9892 41.86 47C37.2 47 31 43.45 24.76 37.24Z"
    fill="black" />
</svg>
  