<?xml version="1.0" encoding="UTF-8"?>
<svg width="1200pt" height="1200pt" version="1.1" viewBox="0 0 1200 1200" xmlns="http://www.w3.org/2000/svg">
 <path d="m600 1056c-250.67 0-456-204-456-456s205.33-456 456-456 456 205.33 456 456c0 82.668-22.668 162.67-64 233.33-5.332 9.332-17.332 12-28 6.668-9.332-5.332-12-17.332-6.668-28 38.668-64 58.668-137.33 58.668-212 0-229.33-186.67-416-416-416s-416 186.67-416 416 186.67 416 416 416c80 0 150.67-22.668 192-62.668 36-34.668 52-70.668 49.332-105.33-8-74.668-101.33-133.33-112-140-1.332 0-1.332-1.332-1.332-1.332-1.332 0-4 1.332-6.668 4s-14.668 13.332-21.332 21.332c-10.668 10.668-17.332 17.332-21.332 20-8 6.668-20 14.668-33.332 12-5.332 0-9.332-2.668-14.668-5.332-8-4-44-30.668-106.67-101.33-72-81.332-73.332-129.33-73.332-142.67 1.332-14.668 12-24 20-30.668s18.668-13.332 28-18.668c8-4 16-9.332 22.668-16 2.668-2.668 5.332-4 5.332-5.332v-1.332c-2.668-5.332-40-90.668-52-114.67-4 0-9.332 0-12 1.332-76 30.668-86.668 78.668-88 97.336-1.332 13.332-6.668 136 100 265.33 118.67 144 213.33 161.33 230.67 162.67 4 0 25.332 2.668 52-6.668 10.668-4 21.332 1.332 25.332 12s-1.332 21.332-12 25.332c-26.668 9.332-53.332 10.668-69.332 9.332-29.332-2.668-133.33-25.332-257.33-177.33-116-141.33-110.67-278.67-109.33-293.33 1.332-21.332 13.332-90.668 112-129.33 13.332-5.332 45.332-8 57.332 8 5.332 6.668 58.668 128 58.668 129.33 2.668 6.668 2.668 13.332 2.668 20-1.332 10.668-8 20-20 30.668-9.332 6.668-18.668 13.332-28 20-8 5.332-16 9.332-24 16-2.668 2.668-4 4-5.332 4 0 8 5.332 45.332 62.668 109.33 60 68 90.668 89.332 94.668 92 1.332 0 2.668-1.332 5.332-4l17.332-17.332c13.332-13.332 21.332-21.332 26.668-25.332 13.332-9.332 24-13.332 34.668-12 6.668 1.332 13.332 2.668 18.668 6.668 20 12 121.33 78.668 132 170.67 5.332 49.332-14.668 96-61.332 138.67-48.012 46.66-128.01 74.66-218.68 74.66z"/>
</svg>
