<svg width="553" height="691" viewBox="0 0 553 691" fill="none" xmlns="http://www.w3.org/2000/svg">
  <path
    d="M276.5 492.913C274.364 492.916 272.256 492.418 270.348 491.457C268.44 490.497 266.784 489.102 265.514 487.385C264.103 485.543 124.425 299.553 124.425 215.859C123.952 175.032 139.697 135.684 168.205 106.445C196.714 77.2055 235.659 60.4621 276.5 59.8867C317.341 60.4621 356.286 77.2055 384.794 106.445C413.303 135.684 429.048 175.032 428.575 215.859C428.575 299.553 288.896 485.543 287.486 487.385C286.216 489.102 284.56 490.497 282.652 491.457C280.743 492.418 278.636 492.916 276.5 492.913ZM276.5 69.1001C238.104 69.6752 201.503 85.4478 174.722 112.959C147.942 140.471 133.169 177.475 133.642 215.859C133.642 282.776 234.103 430.53 272.869 481.867C273.3 482.418 273.851 482.864 274.48 483.171C275.109 483.478 275.8 483.637 276.5 483.637C277.2 483.637 277.891 483.478 278.52 483.171C279.149 482.864 279.7 482.418 280.131 481.867C318.897 430.567 419.358 282.776 419.358 215.859C419.831 177.475 405.058 140.471 378.277 112.959C351.497 85.4478 314.896 69.6752 276.5 69.1001Z"
    fill="black" />
  <path
    d="M276.5 308.647C257.36 308.647 238.649 302.973 222.735 292.343C206.82 281.713 194.416 266.604 187.092 248.927C179.767 231.25 177.851 211.799 181.585 193.034C185.319 174.268 194.536 157.03 208.07 143.501C221.604 129.972 238.848 120.758 257.62 117.025C276.393 113.293 295.851 115.208 313.534 122.53C331.218 129.852 346.332 142.252 356.966 158.161C367.599 174.07 373.275 192.773 373.275 211.907C373.246 237.555 363.041 262.144 344.898 280.28C326.756 298.416 302.157 308.617 276.5 308.647ZM276.5 124.38C259.183 124.38 242.254 129.513 227.855 139.131C213.456 148.748 202.234 162.418 195.607 178.412C188.98 194.405 187.246 212.004 190.624 228.982C194.003 245.961 202.342 261.556 214.587 273.797C226.832 286.038 242.434 294.374 259.418 297.751C276.403 301.129 294.008 299.395 310.007 292.771C326.006 286.146 339.681 274.927 349.302 260.534C358.923 246.14 364.058 229.218 364.058 211.907C364.032 188.701 354.798 166.454 338.384 150.045C321.969 133.637 299.714 124.407 276.5 124.38Z"
    fill="black" />
</svg>
  